<svg preserveAspectRatio="xMidYMid meet"
    viewBox="0 0 952.000000 1017.000000" version="1.0"
    xmlns="http://www.w3.org/2000/svg">
    <g transform="translate(0.000000,1017.000000) scale(0.100000,-0.100000)" fill="#000"
        stroke="none">
        <path
            d="M3915 10049 c-44 -5 -138 -20 -210 -35 -832 -167 -1487 -785 -1701 -1603 -33 -129 -32 -187 5 -238 29 -40 89 -73 134 -73 37 0 121 47 139 78 9 15 28 74 42 130 153 601 580 1080 1156 1295 467 174 996 151 1445 -62 564 -268 958 -808 1046 -1436 17 -125 15 -398 -5 -510 -23 -128 -21 -185 7 -225 39 -58 71 -75 141 -75 53 0 68 4 99 28 20 15 42 38 48 49 44 82 73 507 49 719 -49 446 -239 888 -518 1203 l-35 39 84 42 c425 213 933 255 1379 113 577 -183 1014 -607 1209 -1171 231 -670 60 -1410 -443 -1913 -101 -101 -259 -234 -278 -234 -3 0 -35 53 -72 119 -204 360 -533 677 -894 861 -75 38 -89 42 -138 38 -64 -5 -99 -28 -131 -84 -29 -50 -29 -98 0 -154 18 -37 35 -52 97 -86 137 -76 294 -183 388 -266 157 -137 324 -352 417 -538 160 -320 223 -611 204 -960 -12 -237 -53 -413 -150 -642 -27 -64 -49 -129 -49 -145 1 -48 35 -110 79 -139 35 -23 48 -26 99 -22 80 6 112 31 155 121 81 170 140 359 179 572 19 103 22 155 22 360 0 256 -9 338 -59 536 -14 54 -25 100 -25 102 0 3 29 24 65 47 l65 42 78 -58 c384 -289 642 -726 717 -1214 22 -139 22 -401 1 -540 -115 -749 -652 -1341 -1386 -1530 -279 -71 -631 -71 -911 0 -181 47 -382 133 -532 229 -97 61 -131 68 -221 42 -82 -24 -113 -43 -134 -83 -148 -271 -357 -544 -622 -808 -677 -678 -1625 -1177 -2759 -1455 -163 -40 -208 -85 -199 -198 5 -62 27 -97 79 -126 50 -28 98 -26 242 10 1215 305 2207 844 2937 1595 201 208 386 437 505 629 l46 74 102 -54 c221 -116 475 -196 731 -230 175 -24 501 -17 661 14 449 85 838 284 1149 589 340 334 550 730 638 1207 19 103 22 154 22 365 -1 270 -13 373 -74 593 -121 434 -388 841 -733 1115 l-73 58 83 94 c300 340 486 752 545 1200 17 139 15 421 -6 565 -128 885 -764 1600 -1618 1819 -211 55 -336 70 -558 70 -217 1 -338 -14 -543 -66 -213 -53 -518 -185 -577 -249 l-27 -30 -86 65 c-418 315 -1006 479 -1522 425z">
        </path>
        <path
            d="M2123 7840 c-709 -108 -1321 -549 -1639 -1183 -116 -230 -189 -475 -219 -735 -67 -575 97 -1152 460 -1617 85 -109 289 -306 405 -392 389 -287 833 -433 1311 -433 346 1 638 65 938 206 63 30 116 54 119 54 10 0 -11 -118 -44 -248 -249 -978 -941 -1776 -1989 -2292 -273 -134 -493 -222 -815 -326 -122 -39 -150 -52 -181 -83 -43 -43 -59 -107 -40 -163 20 -61 95 -118 156 -118 30 0 253 70 435 136 506 184 948 416 1330 697 242 179 523 440 697 649 363 435 615 928 738 1443 94 394 127 983 70 1254 -17 82 -24 97 -57 128 -80 75 -200 59 -255 -34 -28 -48 -28 -70 -3 -263 5 -41 9 -134 10 -207 l0 -131 -37 -30 c-54 -42 -197 -125 -290 -168 -515 -237 -1071 -230 -1599 20 -438 208 -788 610 -943 1082 -73 224 -86 307 -86 579 0 209 3 254 23 351 89 440 314 820 646 1088 533 432 1222 541 1859 295 238 -91 439 -224 652 -430 70 -67 87 -78 127 -84 78 -12 145 21 177 89 45 92 22 145 -131 291 -334 320 -784 532 -1243 585 -144 16 -442 11 -582 -10z">
        </path>
    </g>
</svg>